<svg id="svg" version="1.1" xmlns="http://www.w3.org/2000/svg" xmlns:xlink="http://www.w3.org/1999/xlink" width="400" height="400" viewBox="0, 0, 400,400"><g id="svgg"><path id="path0" d="M288.337 51.796 C 288.230 51.904,286.985 52.183,285.571 52.416 C 280.703 53.219,280.392 53.290,280.173 53.644 C 280.052 53.840,279.524 54.000,279.000 54.000 C 278.476 54.000,277.936 54.180,277.800 54.400 C 277.664 54.620,277.201 54.800,276.771 54.800 C 276.341 54.800,275.677 54.959,275.295 55.153 C 274.913 55.348,274.150 55.684,273.600 55.901 C 256.967 62.465,243.137 77.114,237.630 94.000 C 236.292 98.104,236.105 98.827,235.609 101.800 C 235.352 103.340,234.975 105.575,234.771 106.767 C 234.118 110.579,234.298 170.535,234.971 173.600 C 236.044 178.483,236.848 180.435,239.336 184.200 C 241.333 187.222,246.133 192.000,247.171 192.000 C 247.370 192.000,247.593 192.136,247.667 192.302 C 247.842 192.700,252.375 194.901,255.400 196.056 C 257.789 196.970,257.906 196.974,281.900 197.117 L 306.000 197.260 306.000 124.430 L 306.000 51.600 297.267 51.600 C 292.463 51.600,288.445 51.688,288.337 51.796 M83.600 105.780 C 83.600 137.662,83.744 155.912,84.008 157.280 C 84.921 162.028,85.332 163.877,85.815 165.400 C 86.753 168.356,88.544 172.584,89.676 174.518 C 90.294 175.572,90.800 176.607,90.800 176.818 C 90.800 177.028,90.951 177.200,91.136 177.200 C 91.320 177.200,91.670 177.636,91.913 178.169 C 92.421 179.283,92.837 179.816,96.437 183.963 C 101.615 189.927,108.333 194.454,117.440 198.115 C 119.710 199.027,120.657 199.288,125.677 200.389 C 128.192 200.940,160.068 200.936,162.880 200.384 C 167.162 199.544,169.524 198.909,171.900 197.960 C 172.395 197.762,173.205 197.443,173.700 197.251 C 175.787 196.440,178.713 194.956,180.272 193.916 C 181.192 193.302,182.122 192.800,182.339 192.800 C 182.556 192.800,182.793 192.655,182.867 192.477 C 182.940 192.299,183.812 191.600,184.804 190.924 C 193.811 184.783,201.734 172.312,203.941 160.800 C 205.135 154.577,205.200 151.654,205.200 104.623 L 205.200 56.400 192.607 56.400 L 180.013 56.400 179.907 90.700 L 179.800 125.000 178.816 126.927 C 174.229 135.906,162.086 135.613,157.503 126.412 L 156.600 124.600 156.485 90.494 L 156.370 56.388 144.285 56.494 L 132.200 56.600 132.200 90.400 L 132.200 124.200 131.152 126.435 C 126.663 136.006,113.618 136.039,109.345 126.489 L 108.400 124.377 108.400 90.389 L 108.400 56.400 96.000 56.400 L 83.600 56.400 83.600 105.780 " stroke="none" fill="#e1f4fa" fill-rule="evenodd"></path><path id="path1" d="M118.838 238.954 C 118.489 239.375,118.402 251.654,118.491 288.257 L 118.609 337.000 119.521 339.600 C 126.955 360.796,153.364 364.778,165.948 346.600 C 167.238 344.736,168.800 341.466,168.800 340.628 C 168.800 340.309,168.956 339.951,169.147 339.833 C 170.031 339.287,170.160 332.681,170.179 287.200 L 170.200 238.600 144.751 238.497 C 123.327 238.410,119.229 238.483,118.838 238.954 M254.836 238.956 C 254.485 239.379,254.400 251.569,254.491 288.259 L 254.612 337.000 255.545 339.591 C 257.347 344.593,260.146 348.922,263.201 351.436 C 263.971 352.069,264.690 352.704,264.800 352.848 C 264.910 352.991,265.900 353.634,267.000 354.275 C 281.734 362.872,299.531 356.304,305.135 340.200 C 306.391 336.591,306.441 334.328,306.321 286.600 L 306.200 238.600 280.751 238.497 C 259.291 238.410,255.230 238.482,254.836 238.956 " stroke="none" fill="#584c48" fill-rule="evenodd"></path><path id="path2" d="M181.997 0.133 C 181.885 0.247,180.445 0.378,178.797 0.425 C 177.148 0.472,175.503 0.662,175.141 0.847 C 174.778 1.033,173.200 1.211,171.633 1.243 C 170.066 1.275,168.687 1.459,168.569 1.651 C 168.450 1.843,167.463 2.000,166.376 2.000 C 165.289 2.000,164.400 2.180,164.400 2.400 C 164.400 2.620,163.691 2.800,162.824 2.800 C 161.957 2.800,161.157 2.946,161.047 3.124 C 160.937 3.302,159.981 3.492,158.923 3.546 C 157.866 3.599,156.940 3.813,156.867 4.021 C 156.793 4.230,155.863 4.400,154.800 4.400 C 153.737 4.400,152.807 4.574,152.733 4.787 C 152.660 5.000,152.027 5.218,151.328 5.270 C 150.628 5.323,150.144 5.509,150.251 5.683 C 150.359 5.857,149.526 6.000,148.400 6.000 C 147.137 6.000,146.447 6.153,146.600 6.400 C 146.812 6.743,145.331 7.022,144.270 6.837 C 144.089 6.806,144.055 6.965,144.194 7.190 C 144.351 7.444,143.830 7.600,142.824 7.600 C 141.931 7.600,141.200 7.780,141.200 8.000 C 141.200 8.220,140.660 8.400,140.000 8.400 C 139.340 8.400,138.800 8.591,138.800 8.824 C 138.800 9.057,138.635 9.145,138.434 9.021 C 138.232 8.896,137.557 9.002,136.934 9.256 C 136.310 9.509,135.440 9.736,135.000 9.759 C 134.560 9.781,134.236 9.999,134.281 10.243 C 134.326 10.489,133.934 10.639,133.399 10.580 C 132.869 10.522,132.228 10.726,131.973 11.033 C 131.718 11.340,131.353 11.495,131.163 11.377 C 130.972 11.259,130.408 11.390,129.908 11.667 C 128.875 12.241,129.021 12.189,127.300 12.594 C 126.585 12.762,126.000 13.036,126.000 13.201 C 126.000 13.367,125.505 13.688,124.900 13.914 C 124.295 14.140,123.440 14.460,123.000 14.624 C 122.560 14.788,121.750 14.996,121.200 15.086 C 120.650 15.176,120.140 15.418,120.067 15.625 C 119.993 15.831,119.588 16.000,119.167 16.000 C 118.745 16.000,118.399 16.135,118.397 16.300 C 118.394 16.614,116.494 17.600,115.892 17.600 C 115.700 17.600,115.284 17.859,114.967 18.176 C 114.650 18.493,114.028 18.682,113.585 18.597 C 113.141 18.512,112.884 18.612,113.013 18.821 C 113.142 19.029,112.742 19.203,112.124 19.206 C 111.251 19.211,111.134 19.299,111.600 19.600 C 112.095 19.920,112.056 19.989,111.380 19.994 C 110.401 20.001,108.408 20.876,108.403 21.300 C 108.401 21.465,108.122 21.600,107.783 21.600 C 107.444 21.600,106.780 21.960,106.308 22.400 C 105.836 22.840,104.988 23.203,104.425 23.206 C 103.761 23.210,103.577 23.325,103.902 23.531 C 104.243 23.748,103.956 24.025,103.002 24.399 C 102.231 24.702,101.600 25.090,101.600 25.262 C 101.600 25.434,101.332 25.472,101.003 25.346 C 100.663 25.215,100.301 25.392,100.161 25.758 C 100.025 26.111,99.484 26.400,98.957 26.400 C 98.431 26.400,98.000 26.591,98.000 26.824 C 98.000 27.057,97.820 27.136,97.600 27.000 C 97.380 26.864,97.200 26.943,97.200 27.176 C 97.200 27.409,96.919 27.600,96.576 27.600 C 96.233 27.600,96.064 27.780,96.200 28.000 C 96.336 28.220,96.122 28.406,95.724 28.413 C 94.800 28.429,93.520 29.387,93.906 29.773 C 94.068 29.934,94.020 30.030,93.800 29.986 C 92.832 29.791,92.008 30.040,92.100 30.500 C 92.155 30.775,91.975 30.955,91.700 30.900 C 91.425 30.845,91.200 30.958,91.200 31.151 C 91.200 31.345,90.660 31.727,90.000 32.000 C 89.340 32.273,88.800 32.633,88.800 32.800 C 88.800 32.967,88.260 33.327,87.600 33.600 C 86.940 33.873,86.400 34.255,86.400 34.449 C 86.400 34.642,86.040 34.800,85.600 34.800 C 85.142 34.800,84.800 35.067,84.800 35.424 C 84.800 35.767,84.653 35.956,84.473 35.845 C 84.293 35.734,83.893 35.993,83.585 36.421 C 83.276 36.850,82.746 37.200,82.408 37.200 C 82.069 37.200,81.568 37.560,81.293 38.000 C 81.018 38.440,80.524 38.800,80.194 38.800 C 79.865 38.800,78.831 39.575,77.898 40.522 C 76.202 42.242,75.973 42.400,75.176 42.400 C 74.943 42.400,74.864 42.580,75.000 42.800 C 75.136 43.020,74.967 43.200,74.624 43.200 C 74.281 43.200,74.000 43.481,74.000 43.824 C 74.000 44.167,73.827 44.340,73.615 44.209 C 73.403 44.078,72.863 44.337,72.415 44.785 C 71.967 45.233,71.516 45.600,71.413 45.600 C 71.310 45.600,70.105 46.680,68.735 48.000 C 67.365 49.320,66.009 50.400,65.722 50.400 C 65.435 50.400,65.199 50.625,65.199 50.900 C 65.198 51.175,64.671 51.753,64.027 52.184 C 63.384 52.615,62.945 53.110,63.052 53.284 C 63.159 53.458,62.956 53.600,62.600 53.600 C 62.244 53.600,62.064 53.780,62.200 54.000 C 62.336 54.220,62.258 54.400,62.027 54.400 C 61.626 54.400,60.390 55.576,58.557 57.698 C 58.094 58.235,57.365 58.928,56.937 59.237 C 56.510 59.547,55.854 60.245,55.480 60.789 C 55.106 61.333,54.800 61.635,54.800 61.460 C 54.800 61.286,54.530 61.413,54.200 61.743 C 53.870 62.073,53.600 62.546,53.600 62.795 C 53.600 63.044,53.458 63.159,53.284 63.052 C 53.110 62.945,52.615 63.384,52.184 64.027 C 51.753 64.671,51.164 65.198,50.876 65.199 C 50.588 65.199,50.453 65.363,50.576 65.562 C 50.699 65.761,49.630 67.135,48.200 68.615 C 46.770 70.095,45.600 71.419,45.600 71.557 C 45.600 71.695,45.225 72.042,44.767 72.328 C 44.294 72.623,44.029 73.098,44.154 73.424 C 44.275 73.741,44.188 74.000,43.959 74.000 C 43.404 74.000,42.754 74.700,41.689 76.441 C 41.204 77.234,40.356 78.222,39.804 78.636 C 39.252 79.051,38.800 79.697,38.800 80.072 C 38.800 80.448,38.485 80.990,38.100 81.277 C 37.715 81.565,37.400 82.070,37.400 82.400 C 37.400 82.730,37.162 82.951,36.870 82.890 C 36.579 82.830,36.455 82.966,36.596 83.193 C 36.736 83.420,36.570 83.713,36.228 83.845 C 35.885 83.976,35.693 84.227,35.801 84.401 C 35.909 84.576,35.458 85.296,34.798 86.002 C 34.139 86.707,33.600 87.437,33.600 87.624 C 33.600 87.811,33.142 88.422,32.582 88.982 C 32.022 89.542,31.779 90.000,32.043 90.000 C 32.307 90.000,32.135 90.336,31.661 90.747 C 31.188 91.158,30.800 91.708,30.800 91.971 C 30.800 92.233,30.589 92.317,30.332 92.158 C 30.022 91.967,29.946 92.083,30.107 92.501 C 30.246 92.865,30.106 93.227,29.775 93.354 C 29.459 93.476,29.200 93.851,29.200 94.187 C 29.200 94.524,29.020 94.800,28.800 94.800 C 28.580 94.800,28.400 95.171,28.400 95.624 C 28.400 96.151,28.231 96.343,27.932 96.158 C 27.617 95.964,27.548 96.087,27.719 96.534 C 27.889 96.976,27.769 97.200,27.364 97.200 C 27.028 97.200,26.855 97.365,26.979 97.566 C 27.103 97.767,26.979 98.023,26.702 98.134 C 26.303 98.295,26.303 98.343,26.700 98.368 C 26.975 98.386,27.200 98.610,27.200 98.867 C 27.200 99.123,27.082 99.216,26.939 99.072 C 26.573 98.707,24.800 101.199,24.800 102.078 C 24.800 102.475,24.620 102.800,24.400 102.800 C 24.180 102.800,23.997 103.205,23.994 103.700 C 23.989 104.428,23.914 104.485,23.600 104.000 C 23.294 103.527,23.211 103.616,23.206 104.425 C 23.203 104.988,22.840 105.836,22.400 106.308 C 21.960 106.780,21.600 107.444,21.600 107.783 C 21.600 108.122,21.441 108.400,21.247 108.400 C 21.052 108.400,20.762 108.805,20.600 109.300 C 20.439 109.795,20.261 110.335,20.204 110.500 C 20.147 110.665,20.075 111.115,20.044 111.500 C 19.996 112.101,19.933 112.115,19.600 111.600 C 19.286 111.115,19.211 111.172,19.206 111.900 C 19.203 112.395,19.058 112.800,18.885 112.800 C 18.712 112.800,18.544 113.148,18.512 113.573 C 18.480 113.998,18.134 114.835,17.743 115.432 C 17.351 116.029,16.974 116.896,16.904 117.358 C 16.834 117.821,16.602 118.260,16.388 118.333 C 16.175 118.407,16.000 118.812,16.000 119.233 C 16.000 119.655,15.820 120.000,15.600 120.000 C 15.380 120.000,15.200 120.360,15.200 120.800 C 15.200 121.240,14.975 121.603,14.700 121.606 C 14.367 121.610,14.400 121.742,14.800 122.000 C 15.200 122.258,15.233 122.390,14.900 122.394 C 14.625 122.397,14.400 122.760,14.400 123.200 C 14.400 123.640,14.220 124.000,14.000 124.000 C 13.780 124.000,13.600 124.272,13.600 124.605 C 13.600 124.938,13.436 125.523,13.236 125.905 C 12.407 127.488,11.221 130.911,11.401 131.202 C 11.508 131.375,11.326 131.619,10.998 131.746 C 10.649 131.879,10.400 132.481,10.400 133.187 C 10.400 133.854,10.207 134.400,9.971 134.400 C 9.735 134.400,9.613 134.715,9.700 135.100 C 9.787 135.485,9.616 136.295,9.319 136.900 C 9.022 137.505,8.910 138.000,9.070 138.000 C 9.229 138.000,9.144 138.216,8.880 138.480 C 8.616 138.744,8.400 139.565,8.400 140.304 C 8.400 141.097,8.236 141.546,8.000 141.400 C 7.758 141.250,7.600 141.804,7.600 142.800 C 7.600 143.796,7.442 144.350,7.200 144.200 C 6.961 144.053,6.800 144.537,6.800 145.400 C 6.800 146.263,6.639 146.747,6.400 146.600 C 6.158 146.451,6.000 146.996,6.000 147.976 C 6.000 148.869,5.820 149.600,5.600 149.600 C 5.380 149.600,5.200 149.791,5.200 150.024 C 5.200 150.257,5.425 150.320,5.700 150.165 C 6.100 149.939,6.100 149.990,5.700 150.421 C 5.425 150.718,5.200 151.374,5.200 151.880 C 5.200 152.386,5.020 152.800,4.800 152.800 C 4.580 152.800,4.400 153.509,4.400 154.376 C 4.400 155.243,4.220 156.064,4.000 156.200 C 3.780 156.336,3.600 157.247,3.600 158.224 C 3.600 159.201,3.420 160.000,3.200 160.000 C 2.980 160.000,2.800 160.900,2.800 162.000 C 2.800 163.100,2.650 164.000,2.466 164.000 C 2.282 164.000,2.091 165.121,2.041 166.491 C 1.992 167.862,1.811 169.077,1.638 169.191 C 1.466 169.306,1.286 170.557,1.239 171.970 C 1.192 173.384,0.943 174.914,0.687 175.370 C -0.121 176.811,0.038 224.638,0.853 225.209 C 1.017 225.323,1.191 226.583,1.238 228.009 C 1.286 229.434,1.466 230.694,1.638 230.809 C 1.811 230.923,1.992 232.138,2.041 233.509 C 2.091 234.879,2.263 236.000,2.424 236.000 C 2.717 236.000,3.035 237.666,3.457 241.400 C 3.581 242.500,3.842 243.596,4.036 243.835 C 4.231 244.074,4.437 244.929,4.495 245.734 C 4.553 246.540,4.735 247.199,4.900 247.199 C 5.065 247.200,5.200 247.920,5.200 248.800 C 5.200 249.680,5.380 250.400,5.600 250.400 C 5.820 250.400,6.000 251.131,6.000 252.024 C 6.000 253.004,6.158 253.549,6.400 253.400 C 6.639 253.253,6.800 253.737,6.800 254.600 C 6.800 255.463,6.961 255.947,7.200 255.800 C 7.442 255.650,7.600 256.204,7.600 257.200 C 7.600 258.196,7.758 258.750,8.000 258.600 C 8.234 258.455,8.400 258.870,8.400 259.600 C 8.400 260.286,8.547 260.756,8.727 260.645 C 8.907 260.534,9.086 260.928,9.125 261.521 C 9.272 263.788,9.701 265.585,10.043 265.373 C 10.240 265.252,10.400 265.793,10.400 266.576 C 10.400 267.602,10.575 268.000,11.027 268.000 C 11.463 268.000,11.580 268.234,11.411 268.766 C 11.277 269.188,11.355 269.648,11.584 269.790 C 11.813 269.931,12.000 270.397,12.000 270.824 C 12.000 271.251,12.141 271.600,12.313 271.600 C 12.485 271.600,12.662 272.039,12.706 272.576 C 12.751 273.113,13.150 274.199,13.594 274.989 C 14.037 275.778,14.400 276.689,14.400 277.012 C 14.400 277.335,14.625 277.603,14.900 277.606 C 15.233 277.610,15.200 277.742,14.800 278.000 C 14.400 278.258,14.367 278.390,14.700 278.394 C 14.975 278.397,15.200 278.771,15.200 279.224 C 15.200 279.677,15.380 279.936,15.600 279.800 C 15.827 279.660,16.000 279.996,16.000 280.576 C 16.000 281.139,16.135 281.601,16.300 281.603 C 16.659 281.607,17.600 283.544,17.600 284.280 C 17.600 284.566,17.791 284.800,18.024 284.800 C 18.257 284.800,18.344 284.968,18.217 285.172 C 18.091 285.377,18.182 285.665,18.421 285.813 C 18.659 285.960,18.754 286.342,18.632 286.661 C 18.509 286.980,18.574 287.139,18.776 287.015 C 18.978 286.890,19.369 287.411,19.645 288.172 C 19.920 288.934,20.248 289.494,20.373 289.417 C 20.498 289.340,20.628 289.749,20.663 290.326 C 20.698 290.903,20.923 291.441,21.163 291.521 C 21.403 291.601,21.600 291.922,21.600 292.233 C 21.600 292.545,21.960 293.160,22.400 293.600 C 22.840 294.040,23.200 294.670,23.200 295.000 C 23.200 295.330,23.380 295.600,23.600 295.600 C 23.820 295.600,24.000 295.960,24.000 296.400 C 24.000 296.840,24.180 297.200,24.400 297.200 C 24.620 297.200,24.800 297.541,24.800 297.957 C 24.800 298.374,25.067 298.817,25.393 298.942 C 25.731 299.072,25.885 299.435,25.750 299.785 C 25.621 300.123,25.714 300.400,25.957 300.400 C 26.201 300.400,26.381 300.535,26.357 300.700 C 26.256 301.397,26.923 302.761,27.465 302.970 C 27.787 303.093,27.956 303.348,27.839 303.537 C 27.723 303.725,27.946 304.221,28.334 304.639 C 28.723 305.058,29.165 305.726,29.317 306.125 C 29.470 306.524,29.759 306.749,29.960 306.625 C 30.161 306.501,30.224 306.787,30.100 307.262 C 29.945 307.853,30.020 308.035,30.337 307.839 C 30.612 307.669,30.800 307.806,30.800 308.176 C 30.800 308.519,30.958 308.800,31.151 308.800 C 31.345 308.800,31.727 309.340,32.000 310.000 C 32.273 310.660,32.655 311.200,32.849 311.200 C 33.042 311.200,33.200 311.520,33.200 311.912 C 33.200 312.303,33.560 312.883,34.000 313.200 C 34.440 313.517,34.805 313.962,34.811 314.188 C 34.817 314.415,35.357 315.125,36.011 315.767 C 36.665 316.408,37.200 317.186,37.200 317.495 C 37.200 318.189,38.214 319.253,38.552 318.914 C 38.781 318.686,38.971 319.763,38.837 320.530 C 38.806 320.711,38.965 320.745,39.190 320.606 C 39.416 320.467,39.600 320.590,39.600 320.880 C 39.600 321.170,39.960 321.632,40.400 321.907 C 40.840 322.182,41.200 322.598,41.200 322.832 C 41.200 323.443,42.255 324.412,42.574 324.093 C 42.721 323.945,42.712 324.163,42.553 324.578 C 42.352 325.102,42.406 325.243,42.732 325.042 C 43.013 324.868,43.200 325.002,43.200 325.376 C 43.200 325.719,43.481 326.000,43.824 326.000 C 44.167 326.000,44.352 326.153,44.236 326.341 C 44.120 326.529,44.303 327.024,44.642 327.441 C 44.982 327.858,45.128 327.947,44.968 327.638 C 44.775 327.266,44.834 327.174,45.145 327.366 C 45.402 327.525,45.516 327.812,45.398 328.004 C 45.159 328.391,46.726 330.000,47.342 330.000 C 47.557 330.000,47.634 330.099,47.513 330.220 C 47.392 330.341,48.086 331.267,49.055 332.279 C 50.024 333.290,50.742 334.192,50.651 334.283 C 50.560 334.374,51.708 335.562,53.203 336.924 C 54.697 338.286,55.938 339.636,55.960 339.924 C 55.982 340.212,56.135 340.382,56.300 340.303 C 56.465 340.224,57.352 340.933,58.272 341.879 C 59.191 342.826,59.839 343.600,59.711 343.600 C 59.583 343.600,59.910 343.972,60.439 344.426 C 62.713 346.381,65.200 348.907,65.200 349.262 C 65.200 349.474,65.362 349.547,65.559 349.425 C 65.757 349.303,67.223 350.457,68.817 351.989 C 70.412 353.522,71.898 354.663,72.120 354.526 C 72.342 354.389,72.412 354.457,72.275 354.678 C 72.139 354.899,72.471 355.317,73.014 355.607 C 73.556 355.898,74.000 356.285,74.000 356.468 C 74.000 356.650,74.281 356.800,74.624 356.800 C 74.967 356.800,75.139 356.975,75.007 357.188 C 74.875 357.402,75.270 357.701,75.884 357.852 C 76.969 358.120,78.400 359.377,78.400 360.061 C 78.400 360.248,78.681 360.400,79.024 360.400 C 79.367 360.400,79.533 360.584,79.394 360.810 C 79.255 361.035,79.289 361.194,79.470 361.163 C 80.378 361.005,81.219 361.245,81.000 361.600 C 80.864 361.820,81.044 362.000,81.400 362.000 C 81.787 362.000,81.933 362.185,81.762 362.462 C 81.591 362.738,81.651 362.815,81.912 362.654 C 82.152 362.506,82.791 362.827,83.332 363.368 C 83.873 363.909,84.424 364.242,84.558 364.109 C 84.691 363.976,84.800 364.167,84.800 364.533 C 84.800 364.989,85.138 365.200,85.867 365.200 C 86.453 365.200,86.822 365.311,86.686 365.448 C 86.353 365.781,87.406 366.800,88.083 366.800 C 88.380 366.800,88.876 367.150,89.185 367.579 C 89.493 368.007,89.870 368.281,90.021 368.187 C 90.173 368.093,90.708 368.373,91.210 368.808 C 91.712 369.244,92.346 369.600,92.618 369.600 C 92.891 369.600,93.209 369.847,93.325 370.148 C 93.440 370.449,94.441 371.148,95.549 371.700 C 96.657 372.252,97.437 372.844,97.282 373.016 C 97.127 373.188,97.245 373.186,97.545 373.013 C 97.858 372.832,98.213 372.898,98.381 373.169 C 98.541 373.428,99.061 373.669,99.536 373.705 C 100.011 373.741,100.400 374.002,100.400 374.285 C 100.400 374.568,100.535 374.768,100.700 374.728 C 101.173 374.614,104.400 376.155,104.400 376.494 C 104.400 376.662,104.636 376.800,104.925 376.800 C 105.213 376.800,105.884 377.205,106.415 377.700 C 106.947 378.195,107.430 378.555,107.491 378.500 C 107.828 378.192,109.207 378.466,109.000 378.800 C 108.858 379.029,109.218 379.200,109.843 379.200 C 110.443 379.200,110.816 379.317,110.673 379.461 C 110.369 379.765,112.221 380.800,113.069 380.800 C 113.387 380.800,113.536 380.980,113.400 381.200 C 113.260 381.427,113.596 381.600,114.176 381.600 C 114.739 381.600,115.200 381.780,115.200 382.000 C 115.200 382.220,115.560 382.400,116.000 382.400 C 116.440 382.400,116.800 382.580,116.800 382.800 C 116.800 383.020,117.160 383.200,117.600 383.200 C 118.040 383.200,118.400 383.380,118.400 383.600 C 118.400 383.820,118.760 384.000,119.200 384.000 C 119.640 384.000,120.000 384.180,120.000 384.400 C 120.000 384.620,120.191 384.800,120.424 384.800 C 120.657 384.800,120.716 384.575,120.555 384.300 C 120.394 384.025,120.672 384.160,121.173 384.600 C 121.674 385.040,122.110 385.342,122.142 385.272 C 122.174 385.201,122.707 385.336,123.326 385.572 C 123.945 385.807,124.598 386.000,124.777 386.000 C 124.956 386.000,125.326 386.270,125.600 386.600 C 125.874 386.930,126.526 387.200,127.049 387.200 C 127.572 387.200,128.000 387.358,128.000 387.550 C 128.000 387.885,129.725 388.426,131.383 388.611 C 131.814 388.659,132.234 388.902,132.316 389.149 C 132.399 389.397,132.902 389.600,133.433 389.600 C 133.965 389.600,134.400 389.760,134.400 389.956 C 134.400 390.307,136.378 390.765,138.472 390.899 C 139.062 390.936,139.456 391.109,139.348 391.284 C 139.241 391.458,139.838 391.603,140.676 391.606 C 141.807 391.611,142.045 391.712,141.600 392.000 C 141.160 392.284,141.447 392.389,142.676 392.394 C 143.598 392.397,144.464 392.580,144.600 392.800 C 144.736 393.020,145.387 393.200,146.047 393.200 C 146.745 393.200,147.144 393.367,147.000 393.600 C 146.851 393.842,147.396 394.000,148.376 394.000 C 149.269 394.000,150.000 394.142,150.000 394.315 C 150.000 394.488,150.578 394.674,151.284 394.728 C 151.991 394.782,152.666 394.955,152.784 395.113 C 152.903 395.271,153.605 395.439,154.344 395.487 C 155.083 395.535,155.898 395.750,156.156 395.964 C 156.414 396.177,157.574 396.396,158.734 396.449 C 159.893 396.502,160.933 396.692,161.045 396.872 C 161.156 397.053,161.957 397.200,162.824 397.200 C 163.691 397.200,164.400 397.380,164.400 397.600 C 164.400 397.822,165.459 398.000,166.776 398.000 C 168.083 398.000,169.264 398.180,169.400 398.400 C 169.536 398.620,170.792 398.800,172.190 398.800 C 173.869 398.800,174.790 398.970,174.900 399.300 C 175.144 400.032,224.856 400.032,225.100 399.300 C 225.212 398.964,226.176 398.800,228.033 398.800 C 229.611 398.800,230.800 398.628,230.800 398.400 C 230.800 398.176,231.907 398.000,233.320 398.000 C 234.706 398.000,236.011 397.838,236.220 397.641 C 236.578 397.303,237.163 397.186,241.600 396.569 C 242.590 396.431,243.571 396.156,243.780 395.959 C 243.989 395.762,244.743 395.600,245.456 395.600 C 246.169 395.600,246.864 395.420,247.000 395.200 C 247.136 394.980,247.831 394.800,248.544 394.800 C 249.257 394.800,250.011 394.629,250.221 394.419 C 250.430 394.210,251.276 393.993,252.101 393.937 C 252.925 393.882,253.600 393.693,253.600 393.518 C 253.600 393.343,254.140 393.200,254.800 393.200 C 255.460 393.200,256.000 393.040,256.000 392.845 C 256.000 392.650,256.495 392.391,257.100 392.270 C 257.705 392.149,259.010 391.852,260.000 391.612 C 260.990 391.371,262.070 391.123,262.400 391.060 C 262.730 390.997,263.450 390.761,264.000 390.535 C 264.550 390.309,265.990 389.805,267.200 389.414 C 268.410 389.023,269.713 388.545,270.095 388.352 C 270.477 388.158,271.152 388.000,271.595 388.000 C 272.038 388.000,272.400 387.840,272.400 387.644 C 272.400 387.448,273.210 387.049,274.200 386.757 C 275.190 386.465,276.000 386.085,276.000 385.913 C 276.000 385.741,276.279 385.600,276.619 385.600 C 276.960 385.600,277.984 385.240,278.894 384.800 C 279.805 384.360,280.786 384.000,281.075 384.000 C 281.364 384.000,281.600 383.820,281.600 383.600 C 281.600 383.380,281.960 383.200,282.400 383.200 C 282.840 383.200,283.200 383.020,283.200 382.800 C 283.200 382.580,283.740 382.400,284.400 382.400 C 285.060 382.400,285.600 382.220,285.600 382.000 C 285.600 381.780,285.870 381.600,286.200 381.600 C 286.530 381.600,286.800 381.420,286.800 381.200 C 286.800 380.980,287.250 380.800,287.800 380.800 C 288.350 380.800,288.800 380.620,288.800 380.400 C 288.800 380.180,289.070 380.000,289.400 380.000 C 289.730 380.000,290.000 379.820,290.000 379.600 C 290.000 379.380,290.360 379.200,290.800 379.200 C 291.240 379.200,291.600 379.020,291.600 378.800 C 291.600 378.580,291.883 378.400,292.229 378.400 C 292.574 378.400,293.136 378.121,293.477 377.780 C 293.818 377.440,294.629 377.054,295.280 376.924 C 296.123 376.755,296.311 376.590,295.932 376.350 C 295.551 376.108,295.656 376.011,296.300 376.006 C 296.795 376.003,297.200 375.820,297.200 375.600 C 297.200 375.380,297.485 375.200,297.833 375.200 C 298.181 375.200,299.553 374.563,300.882 373.783 C 302.212 373.004,303.495 372.329,303.734 372.283 C 303.973 372.238,304.525 371.885,304.960 371.500 C 305.395 371.115,305.998 370.800,306.299 370.800 C 306.601 370.800,306.749 370.641,306.629 370.446 C 306.509 370.252,306.948 369.870,307.605 369.598 C 308.262 369.326,308.800 368.945,308.800 368.751 C 308.800 368.558,309.036 368.400,309.325 368.400 C 309.613 368.400,310.236 368.040,310.708 367.600 C 311.180 367.160,311.804 366.800,312.095 366.800 C 312.386 366.800,312.883 366.440,313.200 366.000 C 313.517 365.560,314.015 365.200,314.306 365.200 C 314.598 365.200,315.286 364.750,315.836 364.200 C 316.386 363.650,317.000 363.200,317.200 363.200 C 317.400 363.200,318.014 362.750,318.564 362.200 C 319.114 361.650,319.717 361.200,319.904 361.200 C 320.091 361.200,320.882 360.615,321.663 359.900 C 322.444 359.185,323.579 358.240,324.186 357.800 C 324.792 357.360,325.526 356.775,325.816 356.500 C 326.106 356.225,326.536 356.000,326.771 356.000 C 327.007 356.000,327.200 355.820,327.200 355.600 C 327.200 355.380,327.392 355.200,327.626 355.200 C 327.860 355.200,328.929 354.300,330.000 353.200 C 331.071 352.100,332.139 351.200,332.371 351.200 C 332.791 351.200,340.753 343.301,342.100 341.548 C 342.485 341.047,342.800 340.755,342.800 340.900 C 342.800 341.044,344.690 339.277,347.000 336.972 C 349.310 334.668,351.200 332.595,351.200 332.365 C 351.200 332.136,352.100 331.071,353.200 330.000 C 354.300 328.929,355.200 327.860,355.200 327.626 C 355.200 327.392,355.380 327.200,355.600 327.200 C 355.820 327.200,356.000 327.012,356.000 326.783 C 356.000 326.347,356.400 325.804,357.900 324.199 C 358.395 323.670,358.800 323.128,358.800 322.996 C 358.800 322.865,359.339 322.181,359.998 321.478 C 360.657 320.775,361.197 320.057,361.198 319.882 C 361.199 319.707,361.650 319.114,362.200 318.564 C 362.750 318.014,363.200 317.400,363.200 317.200 C 363.200 317.000,363.650 316.386,364.200 315.836 C 364.750 315.286,365.200 314.598,365.200 314.306 C 365.200 314.015,365.560 313.517,366.000 313.200 C 366.440 312.883,366.800 312.386,366.800 312.095 C 366.800 311.804,367.160 311.180,367.600 310.708 C 368.040 310.236,368.400 309.613,368.400 309.325 C 368.400 309.036,368.558 308.800,368.751 308.800 C 368.945 308.800,369.326 308.262,369.598 307.605 C 369.870 306.948,370.252 306.509,370.446 306.629 C 370.641 306.749,370.800 306.601,370.800 306.299 C 370.800 305.998,371.160 305.364,371.600 304.892 C 372.040 304.420,372.400 303.856,372.400 303.638 C 372.400 303.421,373.030 302.168,373.800 300.854 C 374.570 299.540,375.200 298.220,375.200 297.921 C 375.200 297.622,375.560 297.117,376.000 296.800 C 376.440 296.483,376.800 295.903,376.800 295.512 C 376.800 295.120,376.980 294.800,377.200 294.800 C 377.420 294.800,377.600 294.440,377.600 294.000 C 377.600 293.560,377.780 293.200,378.000 293.200 C 378.220 293.200,378.400 292.840,378.400 292.400 C 378.400 291.960,378.580 291.600,378.800 291.600 C 379.020 291.600,379.200 291.240,379.200 290.800 C 379.200 290.360,379.335 289.999,379.500 289.999 C 379.665 289.998,380.250 289.008,380.800 287.800 C 381.350 286.592,381.935 285.602,382.100 285.601 C 382.265 285.601,382.400 285.251,382.400 284.824 C 382.400 284.397,382.580 283.936,382.800 283.800 C 383.020 283.664,383.200 283.113,383.200 282.576 C 383.200 282.039,383.380 281.600,383.600 281.600 C 383.820 281.600,384.000 281.251,384.000 280.824 C 384.000 280.397,384.180 279.936,384.400 279.800 C 384.620 279.664,384.800 279.203,384.800 278.776 C 384.800 278.349,384.980 278.000,385.200 278.000 C 385.420 278.000,385.600 277.550,385.600 277.000 C 385.600 276.450,385.741 276.000,385.913 276.000 C 386.085 276.000,386.465 275.190,386.757 274.200 C 387.049 273.210,387.448 272.400,387.644 272.400 C 387.840 272.400,388.000 272.038,388.000 271.595 C 388.000 271.152,388.170 270.477,388.378 270.095 C 388.586 269.713,389.150 268.140,389.632 266.600 C 390.113 265.060,390.651 263.616,390.828 263.390 C 391.004 263.165,391.274 262.035,391.427 260.881 C 391.580 259.727,391.862 258.685,392.053 258.567 C 392.244 258.449,392.400 257.823,392.400 257.176 C 392.400 256.529,392.580 256.000,392.800 256.000 C 393.020 256.000,393.200 255.460,393.200 254.800 C 393.200 254.140,393.380 253.600,393.600 253.600 C 393.820 253.600,394.000 252.891,394.000 252.024 C 394.000 251.157,394.180 250.336,394.400 250.200 C 394.620 250.064,394.800 249.344,394.800 248.600 C 394.800 247.856,394.980 247.136,395.200 247.000 C 395.420 246.864,395.600 246.133,395.600 245.376 C 395.600 244.545,395.798 243.998,396.100 243.994 C 396.433 243.990,396.400 243.858,396.000 243.600 C 395.600 243.342,395.567 243.210,395.900 243.206 C 396.216 243.202,396.400 242.610,396.400 241.600 C 396.400 240.720,396.580 240.000,396.800 240.000 C 397.020 240.000,397.200 239.201,397.200 238.224 C 397.200 237.247,397.380 236.336,397.600 236.200 C 397.820 236.064,398.000 234.793,398.000 233.376 C 398.000 231.925,398.175 230.800,398.400 230.800 C 398.628 230.800,398.800 229.611,398.800 228.033 C 398.800 226.176,398.964 225.212,399.300 225.100 C 400.032 224.856,400.032 175.144,399.300 174.900 C 398.964 174.788,398.800 173.824,398.800 171.967 C 398.800 170.389,398.628 169.200,398.400 169.200 C 398.178 169.200,398.000 168.133,398.000 166.800 C 398.000 165.467,397.822 164.400,397.600 164.400 C 397.380 164.400,397.200 163.410,397.200 162.200 C 397.200 160.990,397.020 160.000,396.800 160.000 C 396.580 160.000,396.400 159.201,396.400 158.224 C 396.400 157.247,396.220 156.336,396.000 156.200 C 395.780 156.064,395.600 155.243,395.600 154.376 C 395.600 153.509,395.420 152.800,395.200 152.800 C 394.980 152.800,394.800 152.080,394.800 151.200 C 394.800 150.320,394.620 149.600,394.400 149.600 C 394.180 149.600,394.000 148.869,394.000 147.976 C 394.000 146.996,393.842 146.451,393.600 146.600 C 393.362 146.747,393.200 146.271,393.200 145.424 C 393.200 144.641,393.020 144.000,392.800 144.000 C 392.580 144.000,392.400 143.370,392.400 142.600 C 392.400 141.830,392.244 141.200,392.053 141.200 C 391.862 141.200,391.599 140.525,391.468 139.700 C 391.162 137.763,391.026 137.253,390.432 135.800 C 390.163 135.140,389.837 134.060,389.709 133.400 C 389.581 132.740,389.242 132.060,388.955 131.889 C 388.668 131.719,388.534 131.315,388.658 130.993 C 388.782 130.670,388.608 130.301,388.271 130.172 C 387.917 130.036,387.723 129.598,387.812 129.136 C 387.897 128.696,387.817 128.035,387.633 127.668 C 386.070 124.535,385.600 123.447,385.600 122.962 C 385.600 122.653,385.375 122.397,385.100 122.394 C 384.767 122.390,384.800 122.258,385.200 122.000 C 385.721 121.663,385.713 121.611,385.143 121.606 C 384.440 121.600,384.000 120.814,384.000 119.567 C 384.000 119.145,383.820 118.800,383.600 118.800 C 383.380 118.800,383.200 118.365,383.200 117.833 C 383.200 117.302,383.025 116.807,382.812 116.733 C 382.598 116.660,382.363 116.200,382.289 115.710 C 382.215 115.221,382.029 114.696,381.877 114.544 C 381.725 114.391,381.597 113.892,381.594 113.433 C 381.589 112.749,381.519 112.707,381.200 113.200 C 380.824 113.781,380.548 112.580,380.786 111.400 C 380.830 111.180,380.741 111.125,380.588 111.279 C 380.291 111.575,378.404 108.142,378.402 107.300 C 378.401 107.025,378.250 106.800,378.068 106.800 C 377.885 106.800,377.480 106.305,377.168 105.700 C 376.856 105.095,376.511 104.510,376.401 104.400 C 375.923 103.924,375.200 102.361,375.200 101.805 C 375.200 101.472,375.009 101.200,374.776 101.200 C 374.543 101.200,374.464 101.020,374.600 100.800 C 374.736 100.580,374.606 100.400,374.311 100.400 C 374.016 100.400,373.734 99.915,373.685 99.322 C 373.636 98.730,373.372 98.102,373.098 97.929 C 372.824 97.755,372.780 97.607,373.000 97.600 C 373.220 97.593,373.130 97.417,372.800 97.208 C 372.470 97.000,372.200 96.676,372.200 96.489 C 372.200 96.017,369.126 91.499,368.439 90.961 C 368.130 90.719,367.986 90.347,368.117 90.134 C 368.249 89.920,368.007 89.493,367.579 89.185 C 367.150 88.876,366.800 88.391,366.800 88.108 C 366.800 87.825,366.260 87.028,365.600 86.337 C 364.940 85.646,364.400 84.857,364.400 84.583 C 364.400 84.310,364.130 83.982,363.800 83.855 C 363.470 83.729,363.200 83.376,363.200 83.072 C 363.200 82.768,362.653 81.946,361.984 81.247 C 361.316 80.547,360.893 79.772,361.046 79.525 C 361.215 79.252,361.143 79.188,360.862 79.362 C 360.585 79.533,360.400 79.387,360.400 79.000 C 360.400 78.644,360.253 78.444,360.073 78.555 C 359.894 78.666,359.434 78.226,359.051 77.578 C 358.668 76.930,358.174 76.400,357.954 76.400 C 357.733 76.400,357.650 76.243,357.768 76.052 C 358.039 75.614,356.671 74.000,356.029 74.000 C 355.767 74.000,355.647 73.847,355.763 73.660 C 356.036 73.219,354.205 70.728,353.861 71.072 C 353.718 71.216,353.600 71.128,353.600 70.876 C 353.600 70.625,352.700 69.475,351.600 68.322 C 350.500 67.169,349.600 65.994,349.600 65.713 C 349.600 65.431,349.456 65.200,349.279 65.200 C 348.903 65.200,344.001 60.420,343.999 60.051 C 343.998 59.913,343.486 59.457,342.861 59.038 C 342.235 58.619,341.381 57.765,340.962 57.139 C 340.543 56.514,340.095 56.002,339.967 56.001 C 339.556 55.999,334.526 50.808,334.733 50.600 C 334.930 50.403,334.116 50.250,333.470 50.363 C 333.289 50.394,333.249 50.244,333.381 50.030 C 333.514 49.816,333.212 49.421,332.711 49.154 C 332.210 48.886,331.329 48.163,330.753 47.548 C 330.177 46.932,329.592 46.542,329.453 46.681 C 329.314 46.820,329.200 46.633,329.200 46.267 C 329.200 45.667,328.747 45.419,327.900 45.553 C 327.735 45.579,327.645 45.403,327.700 45.163 C 327.755 44.922,327.443 44.517,327.006 44.263 C 326.569 44.008,325.899 43.464,325.518 43.053 C 325.121 42.625,324.553 42.409,324.191 42.548 C 323.843 42.682,323.662 42.623,323.790 42.417 C 323.917 42.211,323.387 41.612,322.612 41.086 C 321.838 40.560,321.323 40.010,321.469 39.865 C 321.614 39.719,321.423 39.600,321.043 39.600 C 320.663 39.600,320.467 39.416,320.606 39.190 C 320.745 38.965,320.711 38.806,320.530 38.837 C 319.771 38.969,319.311 38.738,318.064 37.600 C 317.342 36.940,316.481 36.400,316.152 36.400 C 315.822 36.400,315.664 36.220,315.800 36.000 C 315.936 35.780,315.793 35.600,315.483 35.600 C 315.173 35.600,314.354 35.060,313.663 34.400 C 312.972 33.740,312.202 33.200,311.951 33.200 C 311.699 33.200,311.182 32.840,310.800 32.400 C 310.418 31.960,309.645 31.562,309.082 31.515 C 308.519 31.468,308.133 31.309,308.224 31.160 C 308.316 31.012,308.123 30.668,307.796 30.396 C 307.468 30.124,307.195 30.059,307.188 30.251 C 307.181 30.443,306.992 30.285,306.768 29.900 C 306.544 29.515,306.182 29.200,305.963 29.200 C 305.745 29.200,305.180 28.840,304.708 28.400 C 304.235 27.960,303.568 27.645,303.224 27.700 C 302.873 27.756,302.651 27.560,302.716 27.251 C 302.786 26.924,302.608 26.788,302.276 26.915 C 301.971 27.033,301.220 26.699,300.608 26.173 C 299.996 25.647,299.339 25.314,299.148 25.432 C 298.957 25.550,298.800 25.457,298.800 25.224 C 298.800 24.991,298.440 24.800,298.000 24.800 C 297.560 24.800,297.200 24.620,297.200 24.400 C 297.200 24.180,296.840 24.000,296.400 24.000 C 295.960 24.000,295.600 23.856,295.600 23.680 C 295.600 23.505,294.925 23.119,294.100 22.824 C 293.275 22.529,292.510 22.169,292.400 22.024 C 291.868 21.325,289.600 20.000,289.600 20.389 C 289.600 20.678,289.406 20.653,289.042 20.316 C 288.735 20.032,288.583 19.637,288.704 19.438 C 288.825 19.239,288.730 19.196,288.494 19.342 C 288.258 19.488,287.786 19.329,287.447 18.989 C 287.107 18.650,286.732 18.378,286.614 18.386 C 285.371 18.469,284.795 18.331,285.000 18.000 C 285.136 17.780,284.874 17.600,284.418 17.600 C 283.962 17.600,283.277 17.432,282.895 17.226 C 282.513 17.021,281.628 16.622,280.929 16.341 C 280.230 16.060,279.745 15.688,279.852 15.515 C 279.960 15.342,279.677 15.200,279.224 15.200 C 278.771 15.200,278.400 15.020,278.400 14.800 C 278.400 14.580,277.860 14.400,277.200 14.400 C 276.540 14.400,276.000 14.220,276.000 14.000 C 276.000 13.780,275.676 13.600,275.280 13.600 C 274.884 13.600,274.389 13.451,274.180 13.270 C 273.971 13.088,272.990 12.695,272.000 12.398 C 271.010 12.100,269.983 11.693,269.718 11.494 C 269.452 11.294,269.066 11.236,268.859 11.363 C 268.653 11.491,268.375 11.313,268.243 10.967 C 268.078 10.537,267.593 10.376,266.701 10.457 C 265.842 10.535,265.434 10.409,265.500 10.087 C 265.555 9.817,265.155 9.578,264.600 9.550 C 263.606 9.500,262.982 9.391,262.600 9.200 C 262.490 9.145,262.235 9.078,262.033 9.050 C 261.832 9.022,261.532 8.865,261.367 8.700 C 261.202 8.535,260.557 8.400,259.933 8.400 C 259.310 8.400,258.800 8.220,258.800 8.000 C 258.800 7.780,258.069 7.600,257.176 7.600 C 256.196 7.600,255.651 7.442,255.800 7.200 C 255.947 6.961,255.463 6.800,254.600 6.800 C 253.737 6.800,253.253 6.639,253.400 6.400 C 253.551 6.155,252.930 6.000,251.800 6.000 C 250.784 6.000,250.042 5.856,250.151 5.680 C 250.259 5.504,249.690 5.316,248.886 5.262 C 248.082 5.207,247.329 5.036,247.212 4.882 C 247.095 4.727,246.370 4.540,245.600 4.467 C 244.830 4.395,244.029 4.170,243.820 3.967 C 243.611 3.765,242.666 3.600,241.720 3.600 C 240.774 3.600,240.000 3.420,240.000 3.200 C 240.000 2.980,239.809 2.800,239.576 2.800 C 239.343 2.800,239.280 3.025,239.435 3.300 C 239.661 3.700,239.610 3.700,239.179 3.300 C 238.882 3.025,238.046 2.800,237.320 2.800 C 236.594 2.800,236.000 2.650,236.000 2.466 C 236.000 2.282,234.879 2.091,233.509 2.041 C 232.138 1.992,230.923 1.811,230.809 1.638 C 230.694 1.466,229.441 1.286,228.023 1.239 C 226.606 1.191,225.259 1.037,225.030 0.895 C 224.801 0.754,224.251 0.572,223.807 0.492 C 222.488 0.254,182.218 -0.092,181.997 0.133 M306.400 114.134 C 306.400 149.188,306.280 191.398,306.134 207.934 L 305.868 238.000 293.034 238.092 L 280.200 238.183 293.200 238.392 L 306.200 238.600 306.321 286.600 C 306.441 334.328,306.391 336.591,305.135 340.200 C 299.531 356.304,281.734 362.872,267.000 354.275 C 265.900 353.634,264.910 352.991,264.800 352.848 C 264.690 352.704,263.971 352.069,263.201 351.436 C 260.146 348.922,257.347 344.593,255.545 339.591 L 254.612 337.000 254.491 288.259 C 254.400 251.714,254.486 239.378,254.834 238.959 C 255.166 238.559,255.171 238.400,254.853 238.400 C 254.532 238.400,254.378 232.485,254.304 217.344 C 254.214 199.094,254.120 196.248,253.600 195.992 C 248.380 193.428,246.632 192.417,244.526 190.741 C 240.304 187.382,236.749 181.984,234.947 176.200 C 234.242 173.935,234.200 171.876,234.200 139.600 C 234.200 101.358,234.137 102.314,237.228 93.642 C 237.902 91.749,238.598 89.637,238.774 88.948 C 239.168 87.408,241.254 83.049,241.685 82.867 C 241.858 82.793,242.000 82.561,242.000 82.351 C 242.000 81.917,246.146 75.714,247.850 73.600 C 251.913 68.558,263.153 59.200,265.146 59.200 C 265.359 59.200,265.593 59.064,265.667 58.898 C 265.794 58.610,270.294 56.342,272.400 55.504 C 272.950 55.286,273.713 54.948,274.095 54.753 C 274.477 54.559,275.152 54.400,275.595 54.400 C 276.038 54.400,276.400 54.220,276.400 54.000 C 276.400 53.780,276.929 53.600,277.576 53.600 C 278.223 53.600,278.864 53.420,279.000 53.200 C 279.136 52.980,279.766 52.800,280.400 52.800 C 281.034 52.800,281.664 52.620,281.800 52.400 C 281.936 52.180,282.746 52.000,283.600 52.000 C 284.454 52.000,285.264 51.820,285.400 51.600 C 285.536 51.380,286.942 51.197,288.524 51.194 C 290.106 51.191,291.670 51.013,292.000 50.800 C 292.330 50.587,295.705 50.409,299.500 50.406 L 306.400 50.400 306.400 114.134 M156.720 55.680 C 157.086 56.046,157.200 64.321,157.200 90.485 C 157.200 109.556,157.357 125.120,157.553 125.505 C 157.748 125.887,158.128 126.676,158.399 127.258 C 162.193 135.420,174.835 134.660,178.703 126.037 L 179.707 123.800 179.458 90.171 C 179.262 63.731,179.314 56.397,179.704 55.864 C 180.155 55.249,181.351 55.197,192.800 55.294 L 205.400 55.400 205.378 105.600 C 205.355 155.612,205.307 157.611,204.003 162.800 C 203.754 163.790,203.451 165.097,203.329 165.705 C 203.207 166.313,202.949 166.908,202.754 167.029 C 202.559 167.149,202.400 167.524,202.400 167.863 C 202.400 171.829,192.884 185.288,186.800 189.928 C 186.030 190.515,185.310 191.100,185.200 191.228 C 184.031 192.586,176.617 196.673,172.900 198.009 L 170.400 198.907 170.400 218.454 L 170.400 238.000 157.300 238.092 L 144.200 238.183 157.200 238.392 L 170.200 238.600 170.179 287.200 C 170.160 332.681,170.031 339.287,169.147 339.833 C 168.956 339.951,168.800 340.309,168.800 340.628 C 168.800 341.466,167.238 344.736,165.948 346.600 C 153.364 364.778,126.955 360.796,119.521 339.600 L 118.609 337.000 118.491 288.257 C 118.402 251.801,118.489 239.374,118.835 238.957 C 119.208 238.509,119.122 238.400,118.397 238.400 L 117.496 238.400 117.648 218.558 L 117.800 198.717 115.388 197.810 C 111.990 196.532,109.058 194.996,105.718 192.744 C 104.133 191.675,102.740 190.800,102.623 190.800 C 101.484 190.800,92.005 180.894,92.001 179.700 C 92.001 179.425,91.850 179.200,91.668 179.200 C 91.485 179.200,91.080 178.705,90.768 178.100 C 90.456 177.495,90.107 176.910,89.991 176.800 C 89.875 176.690,89.002 174.980,88.049 173.000 C 87.097 171.020,86.157 169.087,85.959 168.705 C 85.762 168.323,85.600 167.648,85.600 167.205 C 85.600 166.762,85.420 166.400,85.200 166.400 C 84.980 166.400,84.800 165.871,84.800 165.224 C 84.800 164.577,84.620 163.936,84.400 163.800 C 84.180 163.664,84.000 162.879,84.000 162.056 C 84.000 161.233,83.835 160.389,83.632 160.180 C 82.334 158.838,81.887 56.703,83.177 56.012 C 83.699 55.733,88.174 55.625,96.285 55.694 L 108.600 55.800 108.800 90.200 C 108.998 124.208,109.010 124.621,109.849 126.436 C 114.167 135.771,127.949 135.044,131.008 125.319 C 131.687 123.161,131.714 121.091,131.482 89.748 C 131.284 63.037,131.336 56.385,131.745 56.046 C 132.623 55.317,156.014 54.974,156.720 55.680 " stroke="none" fill="#f38a17" fill-rule="evenodd"></path><path id="path3" d="M292.800 51.195 C 291.692 51.370,293.885 51.503,298.499 51.540 L 305.998 51.600 306.101 124.300 L 306.203 197.000 306.202 124.000 L 306.200 51.000 300.400 50.955 C 297.210 50.930,293.790 51.038,292.800 51.195 M285.800 52.000 L 285.000 52.344 285.800 52.332 C 286.240 52.326,287.050 52.176,287.600 52.000 L 288.600 51.680 287.600 51.668 C 287.050 51.662,286.240 51.811,285.800 52.000 M281.800 52.800 L 281.000 53.144 281.800 53.166 C 282.240 53.178,282.870 53.013,283.200 52.800 C 283.995 52.286,282.996 52.286,281.800 52.800 M279.000 53.600 C 278.229 53.931,278.231 53.945,279.076 53.972 C 279.558 53.987,280.064 53.820,280.200 53.600 C 280.492 53.127,280.101 53.127,279.000 53.600 M276.600 54.400 C 275.829 54.731,275.831 54.745,276.676 54.772 C 277.158 54.787,277.664 54.620,277.800 54.400 C 278.092 53.927,277.701 53.927,276.600 54.400 M272.000 56.124 C 258.963 61.837,248.013 71.859,241.387 84.147 C 239.767 87.150,238.245 90.943,238.795 90.603 C 239.018 90.465,239.201 90.138,239.202 89.876 C 239.204 89.614,240.149 87.554,241.302 85.297 C 247.178 73.804,257.017 64.025,268.352 58.413 C 270.689 57.256,272.913 56.150,273.295 55.955 C 273.677 55.760,274.251 55.600,274.571 55.600 C 274.891 55.600,275.264 55.420,275.400 55.200 C 275.794 54.562,275.193 54.725,272.000 56.124 M83.385 56.500 C 83.280 56.775,83.241 78.960,83.299 105.800 L 83.403 154.600 83.502 105.500 L 83.600 56.400 96.000 56.400 L 108.400 56.400 108.406 90.500 C 108.409 109.255,108.544 124.808,108.706 125.062 C 109.020 125.555,108.925 57.344,108.611 56.500 C 108.468 56.115,105.574 56.000,96.000 56.000 C 86.428 56.000,83.531 56.115,83.385 56.500 M132.000 56.294 C 132.000 56.462,137.489 56.550,144.197 56.489 L 156.395 56.377 156.501 89.389 L 156.607 122.400 156.603 89.300 L 156.600 56.200 144.300 56.094 C 137.535 56.036,132.000 56.126,132.000 56.294 M179.786 56.494 C 179.680 56.772,179.641 72.210,179.699 90.800 L 179.805 124.600 179.902 90.500 L 180.000 56.400 192.598 56.400 L 205.197 56.400 205.301 104.800 L 205.405 153.200 205.402 104.700 L 205.400 56.200 192.690 56.094 C 182.736 56.012,179.937 56.098,179.786 56.494 M132.187 100.000 C 132.187 112.430,132.238 117.515,132.300 111.300 C 132.362 105.085,132.362 94.915,132.300 88.700 C 132.238 82.485,132.187 87.570,132.187 100.000 M236.200 97.200 C 236.050 97.673,236.017 98.150,236.127 98.260 C 236.237 98.370,236.450 98.073,236.600 97.600 C 236.750 97.127,236.783 96.650,236.673 96.540 C 236.563 96.430,236.350 96.727,236.200 97.200 M235.422 100.622 C 235.272 101.425,235.228 102.162,235.326 102.260 C 235.424 102.357,235.627 101.781,235.778 100.978 C 235.928 100.175,235.972 99.438,235.874 99.340 C 235.776 99.243,235.573 99.819,235.422 100.622 M234.585 105.385 C 234.430 106.623,234.400 107.734,234.519 107.852 C 234.637 107.970,234.861 107.054,235.015 105.815 C 235.170 104.577,235.200 103.466,235.081 103.348 C 234.963 103.230,234.739 104.146,234.585 105.385 M234.190 140.600 C 234.190 156.440,234.239 162.862,234.300 154.871 C 234.360 146.879,234.360 133.919,234.300 126.071 C 234.239 118.222,234.190 124.760,234.190 140.600 M131.429 124.629 C 131.281 125.215,131.238 125.772,131.332 125.866 C 131.427 125.960,131.624 125.558,131.771 124.971 C 131.919 124.385,131.962 123.828,131.868 123.734 C 131.773 123.640,131.576 124.042,131.429 124.629 M178.867 125.980 C 178.633 126.651,178.527 127.200,178.631 127.200 C 178.901 127.200,179.656 125.122,179.457 124.924 C 179.367 124.833,179.101 125.308,178.867 125.980 M109.216 126.126 C 109.137 127.730,114.092 132.800,115.739 132.800 C 115.968 132.800,115.356 132.284,114.378 131.654 C 112.336 130.337,110.771 128.724,109.864 127.000 C 109.516 126.340,109.225 125.947,109.216 126.126 M129.181 129.140 C 128.718 129.766,127.543 130.782,126.569 131.398 C 124.708 132.574,124.169 133.164,125.700 132.349 C 127.677 131.297,131.106 128.000,130.224 128.000 C 130.114 128.000,129.645 128.513,129.181 129.140 M175.800 130.278 C 174.700 131.294,174.160 131.932,174.600 131.695 C 175.362 131.286,178.353 128.383,177.978 128.416 C 177.880 128.425,176.900 129.263,175.800 130.278 M116.800 133.200 C 117.130 133.413,117.850 133.573,118.400 133.554 L 119.400 133.520 118.400 133.200 C 116.858 132.706,116.036 132.706,116.800 133.200 M122.200 133.200 L 121.400 133.544 122.200 133.544 C 122.640 133.544,123.360 133.389,123.800 133.200 L 124.600 132.856 123.800 132.856 C 123.360 132.856,122.640 133.011,122.200 133.200 M165.676 133.260 C 166.903 133.606,170.026 133.613,170.885 133.272 C 171.262 133.122,170.036 133.000,168.161 133.000 C 166.287 133.000,165.168 133.117,165.676 133.260 M83.687 157.200 C 83.683 157.970,83.824 159.050,84.000 159.600 C 84.448 160.999,84.448 158.761,84.000 157.000 L 83.695 155.800 83.687 157.200 M204.460 157.840 C 204.427 158.742,204.235 160.002,204.034 160.640 C 203.510 162.303,203.150 164.822,203.583 163.800 C 204.235 162.261,204.874 158.590,204.698 157.400 C 204.549 156.396,204.510 156.468,204.460 157.840 M84.456 161.600 C 84.456 162.150,84.611 162.960,84.800 163.400 C 85.113 164.129,85.144 164.112,85.144 163.200 C 85.144 162.650,84.989 161.840,84.800 161.400 C 84.487 160.671,84.456 160.688,84.456 161.600 M85.227 164.750 C 85.188 165.542,87.859 172.090,89.303 174.745 C 93.285 182.063,101.753 190.782,108.000 193.994 C 109.511 194.771,108.818 194.188,105.493 191.885 C 101.050 188.809,99.364 187.334,96.437 183.963 C 92.837 179.816,92.421 179.283,91.913 178.169 C 91.670 177.636,91.320 177.200,91.136 177.200 C 90.951 177.200,90.800 177.028,90.800 176.818 C 90.800 176.607,90.295 175.572,89.678 174.518 C 89.061 173.463,87.965 171.070,87.243 169.200 C 85.425 164.492,85.258 164.124,85.227 164.750 M234.468 172.800 C 234.462 173.350,234.611 174.160,234.800 174.600 L 235.144 175.400 235.132 174.600 C 235.126 174.160,234.976 173.350,234.800 172.800 L 234.480 171.800 234.468 172.800 M197.400 177.200 C 197.059 177.860,196.869 178.400,196.979 178.400 C 197.089 178.400,197.459 177.860,197.800 177.200 C 198.141 176.540,198.331 176.000,198.221 176.000 C 198.111 176.000,197.741 176.540,197.400 177.200 M235.212 176.400 C 235.212 176.730,235.387 177.270,235.600 177.600 C 235.945 178.133,235.988 178.133,235.988 177.600 C 235.988 177.270,235.813 176.730,235.600 176.400 C 235.255 175.867,235.212 175.867,235.212 176.400 M195.305 180.238 C 194.812 181.010,194.579 181.537,194.786 181.409 C 195.384 181.039,196.889 178.798,196.527 178.817 C 196.347 178.826,195.797 179.466,195.305 180.238 M238.474 183.700 C 239.536 185.649,245.898 192.235,246.316 191.818 C 246.468 191.665,246.235 191.344,245.797 191.106 C 244.409 190.349,240.964 186.685,239.397 184.300 C 237.618 181.591,237.166 181.297,238.474 183.700 M189.200 187.147 C 186.940 189.407,186.693 189.743,188.200 188.509 C 190.522 186.607,193.129 183.967,192.578 184.074 C 192.370 184.114,190.850 185.497,189.200 187.147 M184.011 191.420 C 183.247 191.959,182.797 192.399,183.011 192.398 C 183.225 192.397,183.940 191.953,184.600 191.412 C 186.141 190.149,185.805 190.153,184.011 191.420 M180.800 193.633 L 179.800 194.448 181.100 193.814 C 181.815 193.465,182.400 193.094,182.400 192.990 C 182.400 192.592,181.763 192.848,180.800 193.633 M248.000 192.960 C 248.000 193.302,252.049 195.284,252.279 195.055 C 252.440 194.894,251.032 194.121,248.300 192.871 C 248.135 192.795,248.000 192.835,248.000 192.960 M109.200 194.560 C 109.200 194.902,113.249 196.884,113.479 196.655 C 113.640 196.494,112.232 195.721,109.500 194.471 C 109.335 194.395,109.200 194.435,109.200 194.560 M253.600 195.718 L 254.600 196.224 254.704 217.317 L 254.807 238.411 267.504 238.306 L 280.200 238.200 280.400 218.000 L 280.600 197.800 293.400 197.600 C 305.120 197.417,304.157 197.382,282.000 197.189 C 258.165 196.981,257.767 196.965,255.600 196.089 C 253.221 195.128,251.978 194.897,253.600 195.718 M118.234 198.832 C 118.442 199.155,118.600 207.764,118.600 218.800 L 118.600 238.200 130.600 238.312 C 137.200 238.374,143.005 238.325,143.500 238.204 L 144.400 237.985 144.400 219.792 L 144.400 201.600 151.100 201.553 C 154.785 201.527,158.340 201.368,159.000 201.200 C 159.660 201.032,152.921 200.873,144.024 200.847 C 126.925 200.797,123.401 200.481,118.634 198.571 C 118.032 198.329,117.947 198.385,118.234 198.832 M169.600 198.761 C 169.270 198.946,168.280 199.234,167.400 199.400 C 166.520 199.566,166.012 199.780,166.270 199.875 C 166.902 200.106,169.905 199.278,170.207 198.789 C 170.495 198.322,170.390 198.318,169.600 198.761 M162.600 200.400 L 161.400 200.705 162.600 200.713 C 163.260 200.717,164.250 200.576,164.800 200.400 L 165.800 200.080 164.800 200.087 C 164.250 200.091,163.260 200.232,162.600 200.400 " stroke="none" fill="#fce382" fill-rule="evenodd"></path><path id="path4" d="M292.116 50.720 C 291.850 50.889,294.955 51.021,299.014 51.013 C 303.074 51.006,306.397 50.865,306.398 50.700 C 306.401 50.304,292.741 50.323,292.116 50.720 M285.400 51.600 C 285.264 51.820,284.454 52.000,283.600 52.000 C 282.746 52.000,281.932 52.187,281.790 52.416 C 281.630 52.675,281.886 52.764,282.466 52.651 C 282.980 52.551,284.390 52.272,285.600 52.030 C 286.810 51.788,288.610 51.534,289.600 51.465 C 290.743 51.385,290.350 51.314,288.524 51.270 C 286.942 51.231,285.536 51.380,285.400 51.600 M278.990 53.216 C 278.821 53.489,279.123 53.538,279.866 53.360 C 281.399 52.992,281.544 52.800,280.290 52.800 C 279.717 52.800,279.132 52.987,278.990 53.216 M276.400 54.000 C 276.400 54.469,276.707 54.469,277.800 54.000 C 278.509 53.695,278.475 53.653,277.500 53.628 C 276.895 53.613,276.400 53.780,276.400 54.000 M274.200 54.800 C 273.908 55.273,274.299 55.273,275.400 54.800 C 276.171 54.469,276.169 54.455,275.324 54.428 C 274.842 54.413,274.336 54.580,274.200 54.800 M137.940 55.499 C 133.812 55.585,131.956 55.771,131.658 56.130 C 131.363 56.485,131.331 66.785,131.552 90.220 L 131.869 123.800 131.934 89.894 L 132.000 55.988 144.300 56.094 L 156.600 56.200 156.803 90.000 L 157.007 123.800 157.103 89.980 C 157.177 64.100,157.087 56.047,156.720 55.680 C 156.242 55.202,153.486 55.175,137.940 55.499 M179.617 55.968 C 179.350 56.467,179.233 60.681,179.290 67.674 L 179.381 78.600 179.590 67.400 L 179.800 56.200 192.700 56.200 C 201.122 56.200,205.554 56.061,205.467 55.800 C 205.174 54.921,180.090 55.084,179.617 55.968 M83.069 56.100 C 81.875 56.973,82.427 158.935,83.632 160.180 C 83.835 160.389,84.000 161.233,84.000 162.056 C 84.000 162.879,84.180 163.664,84.400 163.800 C 84.620 163.936,84.800 164.577,84.800 165.224 C 84.800 165.871,84.980 166.400,85.200 166.400 C 85.688 166.400,85.688 166.496,85.191 164.797 C 83.330 158.440,83.400 160.721,83.400 106.800 L 83.400 56.200 96.062 56.200 C 103.026 56.200,108.640 56.065,108.538 55.900 C 108.198 55.349,83.834 55.541,83.069 56.100 M268.200 57.322 C 265.332 58.809,265.419 58.752,265.657 58.990 C 265.761 59.095,267.186 58.470,268.824 57.601 C 270.461 56.732,271.530 56.034,271.200 56.049 C 270.870 56.064,269.520 56.637,268.200 57.322 M261.532 61.320 C 256.385 64.810,251.139 69.519,247.850 73.600 C 246.062 75.819,241.917 82.050,242.104 82.238 C 242.198 82.331,243.422 80.651,244.825 78.504 C 248.292 73.196,255.994 65.493,261.300 62.027 C 263.445 60.626,265.200 59.417,265.200 59.340 C 265.200 58.953,264.332 59.421,261.532 61.320 M49.826 66.231 C 49.149 66.908,48.263 68.400,48.538 68.400 C 48.630 68.400,49.186 67.770,49.773 67.000 C 50.886 65.541,50.913 65.144,49.826 66.231 M240.100 85.604 C 238.316 89.441,238.480 90.114,240.294 86.400 C 241.100 84.750,241.829 83.265,241.913 83.100 C 241.998 82.935,241.917 82.802,241.733 82.804 C 241.550 82.806,240.815 84.066,240.100 85.604 M25.992 99.300 C 25.601 100.108,25.614 100.129,26.117 99.506 C 26.426 99.125,26.796 98.930,26.940 99.073 C 27.083 99.216,27.200 99.123,27.200 98.867 C 27.200 98.080,26.453 98.348,25.992 99.300 M234.120 110.000 C 234.120 111.210,234.195 111.705,234.287 111.100 C 234.378 110.495,234.378 109.505,234.287 108.900 C 234.195 108.295,234.120 108.790,234.120 110.000 M119.700 133.476 C 120.085 133.576,120.715 133.576,121.100 133.476 C 121.485 133.375,121.170 133.293,120.400 133.293 C 119.630 133.293,119.315 133.375,119.700 133.476 M205.293 154.400 C 205.293 155.170,205.375 155.485,205.476 155.100 C 205.576 154.715,205.576 154.085,205.476 153.700 C 205.375 153.315,205.293 153.630,205.293 154.400 M85.611 167.305 C 85.605 167.693,85.765 168.323,85.966 168.705 C 86.168 169.087,86.633 170.090,87.001 170.932 C 87.368 171.775,87.740 172.393,87.828 172.306 C 87.915 172.218,87.455 170.898,86.804 169.373 C 86.154 167.848,85.617 166.917,85.611 167.305 M234.101 170.600 C 234.105 171.480,234.187 171.793,234.283 171.295 C 234.379 170.798,234.375 170.078,234.275 169.695 C 234.175 169.313,234.096 169.720,234.101 170.600 M88.966 174.900 C 89.095 175.175,89.311 175.715,89.446 176.100 C 89.582 176.485,89.857 176.800,90.057 176.800 C 90.257 176.800,90.141 176.260,89.800 175.600 C 89.211 174.462,88.473 173.842,88.966 174.900 M90.422 177.400 C 90.427 177.929,91.542 179.391,91.769 179.165 C 91.866 179.068,91.602 178.541,91.182 177.994 C 90.761 177.447,90.420 177.180,90.422 177.400 M92.006 179.800 C 91.999 180.690,100.980 190.353,101.412 189.921 C 101.510 189.824,99.913 188.046,97.865 185.972 C 95.816 183.897,93.660 181.570,93.074 180.800 C 92.488 180.030,92.008 179.580,92.006 179.800 M241.200 187.725 C 241.200 187.794,241.785 188.379,242.500 189.025 L 243.800 190.200 242.625 188.900 C 241.530 187.688,241.200 187.416,241.200 187.725 M253.896 196.037 C 254.274 196.521,254.418 201.692,254.500 217.637 L 254.607 238.600 254.704 217.549 C 254.794 197.909,254.753 196.461,254.100 195.949 C 253.481 195.463,253.457 195.473,253.896 196.037 M306.000 197.128 C 306.000 197.464,302.560 197.617,293.300 197.694 L 280.600 197.800 280.400 218.000 L 280.200 238.200 293.089 238.089 L 305.979 237.979 306.089 217.489 C 306.150 206.220,306.155 196.925,306.100 196.833 C 306.045 196.742,306.000 196.874,306.000 197.128 M117.651 218.420 C 117.525 235.169,117.590 238.400,118.051 238.399 C 118.736 238.398,118.883 199.523,118.200 198.841 C 117.933 198.574,117.750 205.101,117.651 218.420 M169.913 198.948 C 169.227 199.468,165.205 200.341,159.693 201.165 C 158.093 201.404,153.998 201.600,150.593 201.600 L 144.400 201.600 144.400 219.767 C 144.400 229.758,144.265 238.009,144.100 238.101 C 143.935 238.193,144.040 238.208,144.333 238.134 C 144.626 238.060,150.611 238.000,157.633 238.000 L 170.400 238.000 170.400 218.433 C 170.400 203.154,170.510 198.822,170.900 198.665 C 171.175 198.554,171.220 198.455,171.000 198.444 C 170.780 198.434,170.291 198.660,169.913 198.948 M49.056 332.787 C 49.442 333.441,49.999 334.068,50.294 334.181 C 50.589 334.294,50.352 333.760,49.768 332.993 C 48.467 331.288,48.109 331.184,49.056 332.787 M65.819 349.706 C 66.014 350.212,68.400 351.844,68.400 351.470 C 68.400 351.374,67.773 350.817,67.007 350.232 C 66.240 349.648,65.706 349.411,65.819 349.706 " stroke="none" fill="#fcba2d" fill-rule="evenodd"></path></g></svg>